<svg xmlns="http://www.w3.org/2000/svg" viewBox="0 0 1788.45 599.76" width="1756.45" height="567.76" style="background-color: rgb(255, 255, 255);"><defs><style>@import url('https://fonts.googleapis.com/css2?family=Amatic+SC:wght@400;700&amp;display=swap');
@import url('https://fonts.googleapis.com/css2?family=Indie+Flower&amp;display=swap');
@import url('https://fonts.googleapis.com/css2?family=Roboto:wght@400;700;900&amp;display=swap');
@import url('https://fonts.googleapis.com/css2?family=Roboto+Mono:wght@400;700&amp;display=swap');</style></defs><g id="728cec8b-f14c-4148-3db2-beced696d60c_svg" class="tl-centered-g" transform="translate(1416.51, 54.00) rotate(0.00, 103.15, 148.46)"><rect width="206.3" height="296.91" stroke="#000000" stroke-linejoin="round" fill="none" pointer-events="all" stroke-width="4" opacity="1" rx="4" ry="4"/></g><g text-align="left" text-anchor="start" fill="#000000" transform="translate(1420.51, 20.00) rotate(0.00, 88.50, 19.00)"><text y="14" letter-spacing="0" font-size="28px" font-family="&quot;Amatic SC&quot;, cursive" text-align="start" alignment-baseline="central">WorkflowDrawer.TSX</text></g><g id="2dce3330-7a6b-42be-3719-83e9602d8528_svg" class="tl-centered-g" transform="translate(1386.91, 72.32) rotate(0.00, 97.44, 37.22)"><rect width="194.87" height="74.43" stroke="#000000" stroke-linejoin="round" fill="none" pointer-events="all" stroke-width="4" opacity="1" rx="4" ry="4"/></g><g text-align="left" text-anchor="start" fill="#000000" transform="translate(1420.51, 80.54) rotate(0.00, 82.00, 33.00)"><text y="14" letter-spacing="0" font-size="28px" font-family="&quot;Amatic SC&quot;, cursive" text-align="start" alignment-baseline="central">DefaultNode</text><text y="42" letter-spacing="0" font-size="28px" font-family="&quot;Amatic SC&quot;, cursive" text-align="start" alignment-baseline="central">GOOGLE SPREADSHEET</text></g><g id="e410be71-959a-4c2c-032f-cd9429ba2840_svg" class="tl-centered-g" transform="translate(1120.56, 104.92) rotate(0.00, 129.35, 0.50)"><path d="M 258.69,0 L 0,0.11807024693871426 M 15.58,-8.889043420545077 L 0,0.11807024693871426 15.59,9.110954704728817" stroke-width="8" stroke="none" fill="none" pointer-events="all"/><path d="M 258.69,0 L 0,0.11807024693871426 M 15.58,-8.889043420545077 L 0,0.11807024693871426 15.59,9.110954704728817" stroke="#000000" stroke-width="4" stroke-linejoin="round" stroke-linecap="round" fill="none" pointer-events="none" opacity="1"/></g><g text-align="left" text-anchor="start" fill="#000000" transform="translate(1703.45, 88.47) rotate(0.00, 36.50, 19.00)"><text y="14" letter-spacing="0" font-size="28px" font-family="&quot;Amatic SC&quot;, cursive" text-align="start" alignment-baseline="central">onclick</text></g><g id="1a1e26e8-fda6-47d0-3feb-45a59d7afcc5_svg" class="tl-centered-g" transform="translate(900.49, 61.00) rotate(0.00, 95.50, 183.00)"><rect width="191" height="366" stroke="#000000" stroke-linejoin="round" fill="none" pointer-events="all" stroke-width="4" opacity="1" rx="4" ry="4"/></g><g text-align="left" text-anchor="start" fill="#000000" transform="translate(922.49, 94.00) rotate(0.00, 81.50, 19.00)"><text y="14" letter-spacing="0" font-size="28px" font-family="&quot;Amatic SC&quot;, cursive" text-align="start" alignment-baseline="central">handleClickDrawer</text></g><g text-align="left" text-anchor="start" fill="#000000" transform="translate(922.49, 20.00) rotate(0.00, 86.00, 19.00)"><text y="14" letter-spacing="0" font-size="28px" font-family="&quot;Amatic SC&quot;, cursive" text-align="start" alignment-baseline="central">DETAILWORKFLOW.TSX</text></g><g id="905904ee-9493-41c5-37ec-a207d35388d3_svg" class="tl-centered-g" transform="translate(882.99, 84.00) rotate(0.00, 115.50, 24.50)"><rect width="231" height="49" stroke="#000000" stroke-linejoin="round" fill="none" pointer-events="all" stroke-width="4" opacity="1" rx="4" ry="4"/></g><g id="49a4a3e7-e91a-41e8-1a87-3764347b5eff_svg" class="tl-centered-g" transform="translate(998.91, 145.00) rotate(0.00, 0.50, 31.01)"><path d="M 0,0 L 0.71,62.02999999999997 M -8.467746997648632,46.545587164656055 L 0.71,62.02999999999997 9.53,46.33954098452532" stroke-width="8" stroke="none" fill="none" pointer-events="all"/><path d="M 0,0 L 0.71,62.02999999999997 M -8.467746997648632,46.545587164656055 L 0.71,62.02999999999997 9.53,46.33954098452532" stroke="#000000" stroke-width="4" stroke-linejoin="round" stroke-linecap="round" fill="none" pointer-events="none" opacity="1"/></g><g id="d490ffd8-e366-4720-3bfe-ac856a7988bc_svg" class="tl-centered-g" transform="translate(889.99, 219.03) rotate(0.00, 110.00, 20.50)"><rect width="220" height="41" stroke="#000000" stroke-linejoin="round" fill="none" pointer-events="all" stroke-width="4" opacity="1" rx="4" ry="4"/></g><g text-align="left" text-anchor="start" fill="#000000" transform="translate(956.99, 224.53) rotate(0.00, 45.50, 19.00)"><text y="14" letter-spacing="0" font-size="28px" font-family="&quot;Amatic SC&quot;, cursive" text-align="start" alignment-baseline="central">REACTFLOW</text></g><g id="ffe6bb82-5edb-4042-04b2-92b54d10fea4_svg" class="tl-centered-g" transform="translate(827.99, 284.00) rotate(0.00, 152.00, 18.00)"><rect width="304" height="36" stroke="#000000" stroke-linejoin="round" fill="none" pointer-events="all" stroke-width="4" opacity="1" rx="4" ry="4"/></g><g text-align="left" text-anchor="start" fill="#000000" transform="translate(925.99, 287.00) rotate(0.00, 74.00, 19.00)"><text y="14" letter-spacing="0" font-size="28px" font-family="&quot;Amatic SC&quot;, cursive" text-align="start" alignment-baseline="central">WORKFLOWDRAWER</text></g><g id="28bf0c63-9976-442c-3bc7-5a13d80d2aa7_svg" class="tl-centered-g" transform="translate(1592.51, 105.08) rotate(0.00, 51.32, 1.16)"><path d="M 102.63,0 L 0,2.3279358151868337 M 15.38,-7.023229253085178 L 0,2.3279358151868337 15.78,10.9721424647972" stroke-width="8" stroke="none" fill="none" pointer-events="all"/><path d="M 102.63,0 L 0,2.3279358151868337 M 15.38,-7.023229253085178 L 0,2.3279358151868337 15.78,10.9721424647972" stroke="#000000" stroke-width="4" stroke-linejoin="round" stroke-linecap="round" fill="none" pointer-events="none" opacity="1"/></g><g id="4094f1c3-0595-42ff-2fe3-72dc1ec34714_svg" class="tl-centered-g" transform="translate(866.99, 376.00) rotate(0.00, 132.50, 18.00)"><rect width="265" height="36" stroke="#000000" stroke-linejoin="round" fill="none" pointer-events="all" stroke-width="4" opacity="1" rx="4" ry="4"/></g><g text-align="left" text-anchor="start" fill="#000000" transform="translate(499.15, 378.62) rotate(0.00, 69.00, 19.00)"><text y="14" letter-spacing="0" font-size="28px" font-family="&quot;Amatic SC&quot;, cursive" text-align="start" alignment-baseline="central">workflowmodal</text></g><g id="16240712-6e37-423b-2a32-b601f65c7237_svg" class="tl-centered-g" transform="translate(1131.99, 394.00) rotate(0.00, 32.60, 0.50)"><path d="M 65.19,0.4502941202374018 L 0,0 M 15.65,-8.892111990331962 L 0,0 15.52,9.107458614098505" stroke-width="8" stroke="none" fill="none" pointer-events="all"/><path d="M 65.19,0.4502941202374018 L 0,0 M 15.65,-8.892111990331962 L 0,0 15.52,9.107458614098505" stroke="#000000" stroke-width="4" stroke-linejoin="round" stroke-linecap="round" fill="none" pointer-events="none" opacity="1"/></g><g text-align="left" text-anchor="start" fill="#000000" transform="translate(1213.18, 366.00) rotate(0.00, 68.00, 33.00)"><text y="14" letter-spacing="0" font-size="28px" font-family="&quot;Amatic SC&quot;, cursive" text-align="start" alignment-baseline="central">on double click</text><text y="42" letter-spacing="0" font-size="28px" font-family="&quot;Amatic SC&quot;, cursive" text-align="start" alignment-baseline="central">over node</text></g><g id="113c9cd6-611d-47e6-3baf-a9c606ba64fa_svg" class="tl-centered-g" transform="translate(696.40, 392.72) rotate(0.00, 80.03, 0.50)"><path d="M 160.05,0.1274285335751415 L 0,0 M 15.59,-8.987586060170123 L 0,0 15.58,9.012408234825685" stroke-width="8" stroke="none" fill="none" pointer-events="all"/><path d="M 160.05,0.1274285335751415 L 0,0 M 15.59,-8.987586060170123 L 0,0 15.58,9.012408234825685" stroke="#000000" stroke-width="4" stroke-linejoin="round" stroke-linecap="round" fill="none" pointer-events="none" opacity="1"/></g><g id="e2d1d830-ced7-4237-0713-12cdfc43e2b5_svg" class="tl-centered-g" transform="translate(451.63, 68.35) rotate(0.00, 92.00, 184.59)"><rect width="184" height="369.17" stroke="#000000" stroke-linejoin="round" fill="none" pointer-events="all" stroke-width="4" opacity="1" rx="4" ry="4"/></g><g text-align="left" text-anchor="start" fill="#000000" transform="translate(445.84, 20.00) rotate(0.00, 45.00, 19.00)"><text y="14" letter-spacing="0" font-size="28px" font-family="&quot;Amatic SC&quot;, cursive" text-align="start" alignment-baseline="central">modal.tsx</text></g><g id="ebe092b8-6595-4607-257f-3670251faef9_svg" class="tl-centered-g" transform="translate(460.40, 374.62) rotate(0.00, 112.00, 18.00)"><rect width="224" height="36" stroke="#000000" stroke-linejoin="round" fill="none" pointer-events="all" stroke-width="4" opacity="1" rx="4" ry="4"/></g><g text-align="left" text-anchor="start" fill="#000000" transform="translate(935.99, 380.00) rotate(0.00, 69.00, 19.00)"><text y="14" letter-spacing="0" font-size="28px" font-family="&quot;Amatic SC&quot;, cursive" text-align="start" alignment-baseline="central">workflowmodal</text></g><g id="0b0104e1-60b9-44bd-10fc-ee3b0e605b95_svg" class="tl-centered-g" transform="translate(105.42, 235.17) rotate(0.00, 88.50, 47.84)"><rect width="177" height="95.67" stroke="#000000" stroke-linejoin="round" fill="none" pointer-events="all" stroke-width="4" opacity="1" rx="4" ry="4"/></g><g text-align="left" text-anchor="start" fill="#000000" transform="translate(111.75, 254.01) rotate(0.00, 82.00, 33.00)"><text y="14" letter-spacing="0" font-size="28px" font-family="&quot;Amatic SC&quot;, cursive" text-align="start" alignment-baseline="central">DefaultNode</text><text y="42" letter-spacing="0" font-size="28px" font-family="&quot;Amatic SC&quot;, cursive" text-align="start" alignment-baseline="central">GOOGLE SPREADSHEET</text></g><g id="2542d225-5f60-4878-2f65-8743b8c0b02b_svg" class="tl-centered-g" transform="translate(397.41, 395.00) rotate(0.00, 22.22, 0.50)"><path d="M 44.43,0 L 0,0.32448542004431147 M 15.52,-8.789106867681157 L 0,0.32448542004431147 15.65,9.210413208102258" stroke-width="8" stroke="none" fill="none" pointer-events="all"/><path d="M 44.43,0 L 0,0.32448542004431147 M 15.52,-8.789106867681157 L 0,0.32448542004431147 15.65,9.210413208102258" stroke="#000000" stroke-width="4" stroke-linejoin="round" stroke-linecap="round" fill="none" pointer-events="none" opacity="1"/></g><g text-align="left" text-anchor="start" fill="#000000" transform="translate(327.16, 378.00) rotate(0.00, 20.50, 19.00)"><text y="14" letter-spacing="0" font-size="28px" font-family="&quot;Amatic SC&quot;, cursive" text-align="start" alignment-baseline="central">type</text></g><g id="973d7fc8-fd45-4c3c-2f22-15ea86e19b11_svg" class="tl-centered-g" transform="translate(299.31, 349.81) rotate(0.00, 44.34, 42.81)"><ellipse rx="44.34" ry="42.81" cx="44.34" cy="42.81" stroke="#000000" stroke-width="4" opacity="1" fill="none" pointer-events="all"/></g><g id="19a8fefb-f421-4b92-2f23-44c2b47ac917_svg" class="tl-centered-g" transform="translate(16.00, 365.02) rotate(0.00, 88.50, 47.84)"><rect width="177" height="95.67" stroke="#000000" stroke-linejoin="round" fill="none" pointer-events="all" stroke-width="4" opacity="1" rx="4" ry="4"/></g><g text-align="left" text-anchor="start" fill="#000000" transform="translate(22.33, 383.86) rotate(0.00, 54.00, 33.00)"><text y="14" letter-spacing="0" font-size="28px" font-family="&quot;Amatic SC&quot;, cursive" text-align="start" alignment-baseline="central">DefaultNode</text><text y="42" letter-spacing="0" font-size="28px" font-family="&quot;Amatic SC&quot;, cursive" text-align="start" alignment-baseline="central">FACEBOOK</text></g><g id="1c80d1fd-f1a4-4210-1d9f-bba226bce2c1_svg" class="tl-centered-g" transform="translate(77.54, 488.09) rotate(0.00, 88.50, 47.84)"><rect width="177" height="95.67" stroke="#000000" stroke-linejoin="round" fill="none" pointer-events="all" stroke-width="4" opacity="1" rx="4" ry="4"/></g><g text-align="left" text-anchor="start" fill="#000000" transform="translate(83.87, 506.93) rotate(0.00, 54.00, 33.00)"><text y="14" letter-spacing="0" font-size="28px" font-family="&quot;Amatic SC&quot;, cursive" text-align="start" alignment-baseline="central">DefaultNode</text><text y="42" letter-spacing="0" font-size="28px" font-family="&quot;Amatic SC&quot;, cursive" text-align="start" alignment-baseline="central">GOOGLE DOC</text></g><g id="6146e0fd-6060-48c9-0fc1-5b1441f6c2c7_svg" class="tl-centered-g" transform="translate(282.43, 276.93) rotate(0.00, 32.58, 34.12)"><path d="M 65.15,68.23076923076928 L 0,0 M 17.27,5.058473563183297 L 0,0 4.25,17.489480225731583" stroke-width="8" stroke="none" fill="none" pointer-events="all"/><path d="M 65.15,68.23076923076928 L 0,0 M 17.27,5.058473563183297 L 0,0 4.25,17.489480225731583" stroke="#000000" stroke-width="4" stroke-linejoin="round" stroke-linecap="round" fill="none" pointer-events="none" opacity="1"/></g><g id="4f19fb2c-34f2-4c3b-1e0e-8c07d4b02c27_svg" class="tl-centered-g" transform="translate(101.56, 40.57) rotate(0.00, 88.19, 68.97)"><rect width="176.38" height="137.93" stroke="#000000" stroke-linejoin="round" fill="none" pointer-events="all" stroke-width="4" opacity="1" rx="4" ry="4"/></g><g text-align="left" text-anchor="start" fill="#000000" transform="translate(128.06, 62.30) rotate(0.00, 68.00, 47.00)"><text y="14" letter-spacing="0" font-size="28px" font-family="&quot;Amatic SC&quot;, cursive" text-align="start" alignment-baseline="central">template modal</text><text y="42" letter-spacing="0" font-size="28px" font-family="&quot;Amatic SC&quot;, cursive" text-align="start" alignment-baseline="central">for google</text><text y="70" letter-spacing="0" font-size="28px" font-family="&quot;Amatic SC&quot;, cursive" text-align="start" alignment-baseline="central">spreadsheet</text></g><g id="e63cb693-8cfa-48f4-34dd-43aa5b88502e_svg" class="tl-centered-g" transform="translate(179.89, 180.00) rotate(0.00, 1.27, 23.35)"><path d="M 0,46.69230769230771 L 2.53,0 M 10.67,16.05404144399577 L 2.53,0 -7.294495784228847,15.076901216435338" stroke-width="8" stroke="none" fill="none" pointer-events="all"/><path d="M 0,46.69230769230771 L 2.53,0 M 10.67,16.05404144399577 L 2.53,0 -7.294495784228847,15.076901216435338" stroke="#000000" stroke-width="4" stroke-linejoin="round" stroke-linecap="round" fill="none" pointer-events="none" opacity="1"/></g><g id="d4de0e02-51e2-42cf-1092-ccf0f360e8e7_svg" class="tl-centered-g" transform="translate(382.97, 86.70) rotate(0.00, 106.66, 22.81)"><rect width="213.31" height="45.62" stroke="#000000" stroke-linejoin="round" fill="none" pointer-events="all" stroke-width="4" opacity="1" rx="4" ry="4"/></g><g text-align="left" text-anchor="start" fill="#000000" transform="translate(465.62, 94.77) rotate(0.00, 33.00, 19.00)"><text y="14" letter-spacing="0" font-size="28px" font-family="&quot;Amatic SC&quot;, cursive" text-align="start" alignment-baseline="central">render</text></g><g id="48b8ae48-c98e-42ce-08c1-5bc238e92acc_svg" class="tl-centered-g" transform="translate(279.89, 103.62) rotate(0.00, 47.42, 2.04)"><path d="M 0,0 L 94.84,4.076923076923038 M 78.88,12.399174765708015 L 94.84,4.076923076923038 79.65,-5.58421916758315" stroke-width="8" stroke="none" fill="none" pointer-events="all"/><path d="M 0,0 L 94.84,4.076923076923038 M 78.88,12.399174765708015 L 94.84,4.076923076923038 79.65,-5.58421916758315" stroke="#000000" stroke-width="4" stroke-linejoin="round" stroke-linecap="round" fill="none" pointer-events="none" opacity="1"/></g><g id="97407464-85ed-4ca3-13f3-341743bace59_svg" class="tl-centered-g" transform="translate(207.63, 391.46) rotate(0.00, 38.83, 9.17)"><path d="M 77.66,0 L 0,18.33333333333337 M 13.10,5.992803337933976 L 0,18.33333333333337 17.23,23.51134968456426" stroke-width="8" stroke="none" fill="none" pointer-events="all"/><path d="M 77.66,0 L 0,18.33333333333337 M 13.10,5.992803337933976 L 0,18.33333333333337 17.23,23.51134968456426" stroke="#000000" stroke-width="4" stroke-linejoin="round" stroke-linecap="round" fill="none" pointer-events="none" opacity="1"/></g><g id="b99ba154-b791-40a5-07c2-2e813aa7a55b_svg" class="tl-centered-g" transform="translate(264.96, 448.79) rotate(0.00, 32.83, 51.17)"><path d="M 65.66,0 L 0,102.33333333333343 M 0.84,84.35313895392804 L 0,102.33333333333343 15.99,94.07430218654268" stroke-width="8" stroke="none" fill="none" pointer-events="all"/><path d="M 65.66,0 L 0,102.33333333333343 M 0.84,84.35313895392804 L 0,102.33333333333343 15.99,94.07430218654268" stroke="#000000" stroke-width="4" stroke-linejoin="round" stroke-linecap="round" fill="none" pointer-events="none" opacity="1"/></g><g text-align="left" text-anchor="start" fill="rgba(0, 0, 0, .2)" transform="translate(871.225, 573.76)"><text y="5" letter-spacing="0" font-size="10px" font-family="&quot;Amatic SC&quot;, cursive" text-align="start" alignment-baseline="central">okso.app</text></g></svg>